<?xml version="1.0" encoding="UTF-8"?>
<svg width="32" height="32" viewBox="0 0 32 32" fill="none" xmlns="http://www.w3.org/2000/svg">
  <rect width="32" height="32" rx="8" fill="url(#paint0_linear)"/>
  <path d="M16 8C19.3137 8 22 10.6863 22 14C22 15.5913 21.3284 17.0374 20.2426 18.1213C21.3284 19.2071 22 20.6522 22 22.25C22 22.6642 21.6642 23 21.25 23H10.75C10.3358 23 10 22.6642 10 22.25C10 20.6522 10.6716 19.2071 11.7574 18.1213C10.6716 17.0374 10 15.5913 10 14C10 10.6863 12.6863 8 16 8Z" fill="white"/>
  <defs>
    <linearGradient id="paint0_linear" x1="0" y1="0" x2="32" y2="32" gradientUnits="userSpaceOnUse">
      <stop stop-color="#3B82F6"/>
      <stop offset="0.5" stop-color="#4F46E5"/>
      <stop offset="1" stop-color="#6366F1"/>
    </linearGradient>
  </defs>
</svg>